# xmcd CD database file
#
# Track frame offsets:
#	150
#	46146
#	75096
#	104196
#	159096
#
# Disc length: 2534 seconds
#
# Revision: 0
# Processed by: cddbd v1.4PL0 Copyright (c) Steve Scherf et al.
# Submitted via: CDex 1.50Beta5
#
DISCID=2b09e405
DTITLE=Bumi Fian - Fian
DYEAR=1988
DGENRE=Jazz
TTITLE0=Die grüne Gustav
TTITLE1=Triholjoh
TTITLE2=Nur bei Regenwetter
TTITLE3=Immub Naif
TTITLE4=Inne Anne Hans
EXTD=YEAR: 1988
EXTT0=
EXTT1=
EXTT2=
EXTT3=
EXTT4=
PLAYORDER=
